<svg xmlns="http://www.w3.org/2000/svg" width="75.65mm" height="78.93mm" viewBox="0 0 214.44 223.74"><defs><style>.cls-1{fill:#878abb;}.cls-1,.cls-10,.cls-11,.cls-2,.cls-3,.cls-4,.cls-5,.cls-6,.cls-7,.cls-8,.cls-9{stroke:#1d1d1b;stroke-miterlimit:10;}.cls-2{fill:#9294b7;}.cls-3{fill:#9d9eb3;}.cls-4{fill:#a8a7ad;}.cls-5{fill:#b3b1a5;}.cls-6{fill:#bfba9c;}.cls-7{fill:#cac492;}.cls-8{fill:#d5cd85;}.cls-9{fill:#e0d776;}.cls-10{fill:#ebe064;}.cls-11{fill:#f6ea4d;}</style></defs><title>sunmoon</title><g id="Layer_2" data-name="Layer 2"><path class="cls-1" d="M224.48,89.45a60.83,60.83,0,0,0-21.63-21.63,60.2,60.2,0,0,0-29.75-8.3h-.89a60.59,60.59,0,0,0-58.52,44.8,56.34,56.34,0,0,0-1.28,6c-.23,1.36-.4,2.73-.53,4.12q-.15,1.48-.21,3c0,.9-.06,1.8-.06,2.71s0,1.82.06,2.72c-.53-.89-1-1.8-1.51-2.71q-.91-1.77-1.71-3.57a61,61,0,0,1-4.53-16,60.59,60.59,0,0,1,27-59.22c.39-.25.78-.5,1.17-.73a60.2,60.2,0,0,1,28.68-9,60.61,60.61,0,0,1,63.73,57.81Z" transform="translate(-10.63 -8.23)"/><path class="cls-2" d="M202.85,67.82a60.2,60.2,0,0,0-29.75-8.3h-.89a60.59,60.59,0,0,0-58.52,44.8,56.34,56.34,0,0,0-1.28,6c-.23,1.36-.4,2.73-.53,4.12q-.15,1.48-.21,3c0,.9-.06,1.8-.06,2.71s0,1.82.06,2.72.11,2,.21,3q-1.75-1-3.42-2.16a53.43,53.43,0,0,1-4.75-3.56,59.2,59.2,0,0,1-7.45-7.4A60.61,60.61,0,0,1,87.59,48q.24-.52.51-1a60.11,60.11,0,0,1,19.24-22.72,60.56,60.56,0,0,1,60.76-5.59,60.58,60.58,0,0,1,34.75,49.2Z" transform="translate(-10.63 -8.23)"/><path class="cls-3" d="M173.1,59.52h-.89a60.59,60.59,0,0,0-58.52,44.8,56.34,56.34,0,0,0-1.28,6c-.23,1.36-.4,2.73-.53,4.12q-.15,1.48-.21,3c0,.9-.06,1.8-.06,2.71s0,1.82.06,2.72.11,2,.21,3c.13,1.39.3,2.76.53,4.11a57.6,57.6,0,0,1-6.18-.4,59.22,59.22,0,0,1-10-2A60.56,60.56,0,0,1,53.36,78.22c0-.33-.1-.66-.14-1A60.6,60.6,0,0,1,173.1,59.52Z" transform="translate(-10.63 -8.23)"/><path class="cls-4" d="M145.74,65.58a60.6,60.6,0,0,0-32.05,38.73,56.34,56.34,0,0,0-1.28,6c-.23,1.36-.4,2.73-.53,4.12q-.15,1.48-.21,3c0,.9-.06,1.8-.06,2.71s0,1.82.06,2.72.11,2,.21,3c.13,1.39.3,2.76.53,4.11a56.34,56.34,0,0,0,1.28,6,59.19,59.19,0,0,1-9.77,3.74A60.58,60.58,0,0,1,41.5,121.15c-.3-.35-.6-.69-.89-1a60.6,60.6,0,0,1,91.46-79.48c.3.32.58.64.87,1A60.5,60.5,0,0,1,145.74,65.58Z" transform="translate(-10.63 -8.23)"/><path class="cls-5" d="M111.67,117.39c0,.9-.06,1.8-.06,2.71s0,1.82.06,2.72.11,2,.21,3c.13,1.39.3,2.76.53,4.11a56.34,56.34,0,0,0,1.28,6,58.91,58.91,0,0,0,3.45,9.54A60.56,60.56,0,0,1,54.27,163.3L53.22,163a60.14,60.14,0,0,1-25.44-16A60.6,60.6,0,0,1,88.1,46.93l1.12.33A60.41,60.41,0,0,1,126.8,80a60.37,60.37,0,0,0-13.11,24.33,56.34,56.34,0,0,0-1.28,6c-.23,1.36-.4,2.73-.53,4.12Q111.73,115.88,111.67,117.39Z" transform="translate(-10.63 -8.23)"/><path class="cls-6" d="M126.8,160.22A60.47,60.47,0,0,1,89.22,193l-1.12.33a60.6,60.6,0,0,1-34.88-116l1.05-.33a60.67,60.67,0,0,1,62.87,17.88,60.75,60.75,0,0,0-3.45,9.53,56.34,56.34,0,0,0-1.28,6c-.23,1.36-.4,2.73-.53,4.12q-.15,1.48-.21,3c0,.9-.06,1.8-.06,2.71s0,1.82.06,2.72.11,2,.21,3c.13,1.39.3,2.76.53,4.11a56.34,56.34,0,0,0,1.28,6,58.91,58.91,0,0,0,3.45,9.54A60.35,60.35,0,0,0,126.8,160.22Z" transform="translate(-10.63 -8.23)"/><path class="cls-7" d="M145.74,174.63a60.5,60.5,0,0,1-12.8,24c-.29.33-.57.65-.87,1A60.61,60.61,0,0,1,30,178.89a60.55,60.55,0,0,1,10.58-58.78l.89-1a60.65,60.65,0,0,1,62.42-18.48,59.14,59.14,0,0,1,9.77,3.73,56.34,56.34,0,0,0-1.28,6c-.23,1.36-.4,2.73-.53,4.12q-.15,1.48-.21,3c0,.9-.06,1.8-.06,2.71s0,1.82.06,2.72.11,2,.21,3c.13,1.39.3,2.76.53,4.11a56.34,56.34,0,0,0,1.28,6,58.91,58.91,0,0,0,3.45,9.54,61,61,0,0,0,28.6,29.2Z" transform="translate(-10.63 -8.23)"/><path class="cls-8" d="M173.1,180.69a60.24,60.24,0,0,1-12.35,27.88,60.87,60.87,0,0,1-24.44,18.36,60.62,60.62,0,0,1-60.71-8.62A60.58,60.58,0,0,1,53.22,163c.05-.33.09-.65.14-1A60.5,60.5,0,0,1,80.22,120.1a60.32,60.32,0,0,1,26-9.43,57.6,57.6,0,0,1,6.18-.4c-.23,1.36-.4,2.73-.53,4.12q-.15,1.48-.21,3c0,.9-.06,1.8-.06,2.71s0,1.82.06,2.72.11,2,.21,3c.13,1.39.3,2.76.53,4.11a56.34,56.34,0,0,0,1.28,6,58.91,58.91,0,0,0,3.45,9.54,60.56,60.56,0,0,0,55.07,35.27Z" transform="translate(-10.63 -8.23)"/><path class="cls-9" d="M202.84,172.39a60.59,60.59,0,0,1-11,29.44h0a60.57,60.57,0,0,1-55.55,25.1,60.83,60.83,0,0,1-29-10.93A60,60,0,0,1,88.1,193.28q-.27-.53-.51-1.05a60.6,60.6,0,0,1,8.68-64.73,59.12,59.12,0,0,1,7.44-7.4,57.45,57.45,0,0,1,4.74-3.56c1.11-.76,2.26-1.48,3.43-2.15q-.15,1.48-.21,3c0,.9-.06,1.8-.06,2.71s0,1.82.06,2.72.11,2,.21,3c.13,1.39.3,2.76.53,4.11a56.34,56.34,0,0,0,1.28,6,58.91,58.91,0,0,0,3.45,9.54,60.56,60.56,0,0,0,55.07,35.27h.89A60.19,60.19,0,0,0,202.84,172.39Z" transform="translate(-10.63 -8.23)"/><path class="cls-10" d="M224.48,150.75a60.61,60.61,0,0,1-32.61,51.08h0a60.51,60.51,0,0,1-59.79-2.25l-1.17-.74a60.59,60.59,0,0,1-24.67-69.31,58.87,58.87,0,0,1,2.23-5.87c.52-1.19,1.09-2.38,1.7-3.55.48-.92,1-1.82,1.51-2.72,0,.9-.06,1.8-.06,2.71s0,1.82.06,2.72.11,2,.21,3c.13,1.39.3,2.76.53,4.11a56.34,56.34,0,0,0,1.28,6,58.91,58.91,0,0,0,3.45,9.54,60.56,60.56,0,0,0,55.07,35.27h.89a60.19,60.19,0,0,0,29.74-8.3A60.8,60.8,0,0,0,224.48,150.75Z" transform="translate(-10.63 -8.23)"/><path class="cls-11" d="M132.32,106.91a57.57,57.57,0,0,1-.49,6.25q-.26,2-.66,4c-.2,1-.42,2-.67,3-.23-.89-.47-1.77-.74-2.66s-.54-1.72-.84-2.57-.69-1.91-1.08-2.85c-.51-1.27-1.07-2.51-1.66-3.73q-1.32-2.7-2.88-5.22a58.14,58.14,0,0,0-6.16-8.3A60.6,60.6,0,0,1,126.8,80a60.6,60.6,0,0,1,4.94,16.72A58.73,58.73,0,0,1,132.32,106.91Z" transform="translate(-10.63 -8.23)"/><path class="cls-11" d="M114.59,112.89c-.5.69-1,1.4-1.45,2.12s-1,1.58-1.47,2.38q.06-1.52.21-3C112.77,113.86,113.67,113.36,114.59,112.89Z" transform="translate(-10.63 -8.23)"/><path class="cls-11" d="M119.54,110.59c-.87.35-1.73.73-2.59,1.13s-1.59.76-2.36,1.17c-.92.47-1.82,1-2.71,1.5.13-1.39.3-2.76.53-4.12,1.36,0,2.72,0,4.09.08C117.51,110.4,118.52,110.48,119.54,110.59Z" transform="translate(-10.63 -8.23)"/><path class="cls-11" d="M124.9,111.39c-.9-.18-1.81-.33-2.72-.47s-1.76-.24-2.64-.33-2-.19-3-.24c-1.37-.08-2.73-.1-4.09-.08a56.34,56.34,0,0,1,1.28-6,59.26,59.26,0,0,1,5.4,3c1.13.7,2.23,1.44,3.32,2.22Q123.67,110.4,124.9,111.39Z" transform="translate(-10.63 -8.23)"/><path class="cls-11" d="M128.92,114.88c-.63-.6-1.27-1.19-1.93-1.76s-1.38-1.17-2.08-1.73h0q-1.23-1-2.49-1.89c-1.09-.78-2.19-1.52-3.32-2.22a59.26,59.26,0,0,0-5.4-3,60.75,60.75,0,0,1,3.45-9.53,58.14,58.14,0,0,1,6.16,8.3q1.56,2.52,2.88,5.22c.59,1.22,1.15,2.46,1.66,3.73Q128.42,113.44,128.92,114.88Z" transform="translate(-10.63 -8.23)"/><path class="cls-11" d="M147.22,89.8A60,60,0,0,1,142.58,106a59.36,59.36,0,0,1-5.13,9.24,57.32,57.32,0,0,1-3.62,4.83c-.85,1-1.74,2-2.66,3-.72.77-1.48,1.51-2.25,2.24.3-.85.58-1.7.84-2.57s.51-1.77.74-2.65.47-2,.67-3q.41-2,.66-4a57.57,57.57,0,0,0,.49-6.25,58.73,58.73,0,0,0-.58-10.21A60.6,60.6,0,0,0,126.8,80a60.78,60.78,0,0,1,18.94-14.4A60.8,60.8,0,0,1,147.22,89.8Z" transform="translate(-10.63 -8.23)"/><path class="cls-11" d="M171,87.85a60.84,60.84,0,0,1-24.59,32.25A60.12,60.12,0,0,1,131.83,127c-1.31.42-2.63.8-4,1.13h0c-1,.23-1.93.45-2.92.64.7-.55,1.39-1.13,2.07-1.72s1.3-1.16,1.93-1.76,1.53-1.47,2.25-2.24c.92-1,1.81-2,2.66-3a57.32,57.32,0,0,0,3.62-4.83,59.36,59.36,0,0,0,5.13-9.24,60,60,0,0,0,4.64-16.24A60.76,60.76,0,0,1,171,87.85Z" transform="translate(-10.63 -8.23)"/><path class="cls-11" d="M181.34,120.1a61,61,0,0,1-38.76,14.06,58.34,58.34,0,0,1-10.26-.87,55.39,55.39,0,0,1-6.14-1.38q-1.91-.53-3.78-1.2c-1-.33-1.92-.7-2.87-1.1.88-.09,1.76-.2,2.65-.33s1.83-.29,2.74-.47,2-.41,2.92-.64h0c1.35-.33,2.67-.71,4-1.13a60.12,60.12,0,0,0,14.59-6.94,60.11,60.11,0,0,0,13.12-11.6A60.7,60.7,0,0,1,181.34,120.1Z" transform="translate(-10.63 -8.23)"/><path class="cls-11" d="M171,152.35a60.78,60.78,0,0,1-39.27-8.85,59.29,59.29,0,0,1-8.44-6.37q-2.2-2-4.21-4.21c-.9-1-1.77-2-2.59-3.07-.67-.82-1.3-1.66-1.91-2.53.77.41,1.56.8,2.36,1.17s1.71.77,2.58,1.12,1.91.77,2.87,1.1q1.88.67,3.78,1.2a55.39,55.39,0,0,0,6.14,1.38,58.34,58.34,0,0,0,10.26.87,60.49,60.49,0,0,0,17-2.46A60.65,60.65,0,0,1,171,152.35Z" transform="translate(-10.63 -8.23)"/><path class="cls-11" d="M145.74,174.63a61,61,0,0,1-28.6-29.2,58.91,58.91,0,0,1-3.45-9.54,56.34,56.34,0,0,1-1.28-6c-.23-1.35-.4-2.72-.53-4.11q-.15-1.48-.21-3c.47.8,1,1.59,1.47,2.38s1,1.43,1.45,2.12c.61.87,1.24,1.71,1.91,2.53.82,1.06,1.69,2.08,2.59,3.07q2,2.22,4.21,4.21a59.29,59.29,0,0,0,8.44,6.37,60.25,60.25,0,0,0,15.48,6.9A60.84,60.84,0,0,1,145.74,174.63Z" transform="translate(-10.63 -8.23)"/></g></svg>